<svg width="509" height="131" viewBox="0 0 509 131" fill="none" xmlns="http://www.w3.org/2000/svg">
<rect x="2.64646" y="2.64646" width="503.374" height="125.707" rx="26.4646" fill="white"/>
<rect x="2.64646" y="2.64646" width="503.374" height="125.707" rx="26.4646" stroke="#000060" stroke-width="5.29293"/>
<rect x="19.8477" y="19.8486" width="124.384" height="91.303" rx="9.26263" fill="#000060"/>
<path d="M63.885 85.6047C61.0974 85.6047 58.6803 85.0754 56.6337 84.0168C54.6224 82.9229 53.0698 81.388 51.9759 79.412C50.9173 77.4006 50.3881 75.0012 50.3881 72.2136V66.2326H56.3161V71.6843C56.3161 74.2602 56.9866 76.2891 58.3275 77.7711C59.6683 79.2179 61.5209 79.9412 63.885 79.9412C66.2845 79.9412 68.1547 79.2179 69.4955 77.7711C70.8364 76.2891 71.5068 74.2602 71.5068 71.6843V48.2366H53.458V42.4144H77.5408V72.2136C77.5408 75.0012 76.9938 77.4006 75.9 79.412C74.8061 81.388 73.2359 82.9229 71.1893 84.0168C69.178 85.0754 66.7432 85.6047 63.885 85.6047ZM101.899 85.6047C96.7468 85.6047 92.883 83.7698 90.3071 80.1C87.7312 76.4303 86.4432 70.9256 86.4432 63.5861C86.4432 56.2466 87.7312 50.7419 90.3071 47.0722C92.883 43.4024 96.7468 41.5675 101.899 41.5675C107.05 41.5675 110.914 43.4024 113.49 47.0722C116.066 50.7419 117.354 56.2466 117.354 63.5861C117.354 70.9256 116.066 76.4303 113.49 80.1C110.914 83.7698 107.05 85.6047 101.899 85.6047ZM101.899 79.9412C105.145 79.9412 107.527 78.618 109.044 75.9715C110.561 73.3251 111.32 69.1966 111.32 63.5861C111.32 57.9756 110.561 53.8471 109.044 51.2006C107.527 48.5542 105.145 47.2309 101.899 47.2309C98.6523 47.2309 96.2704 48.5542 94.7531 51.2006C93.2358 53.8471 92.4772 57.9756 92.4772 63.5861C92.4772 69.1966 93.2358 73.3251 94.7531 75.9715C96.2704 78.618 98.6523 79.9412 101.899 79.9412Z" fill="white"/>
<path d="M157.569 86.5L168.419 44.1566H178.264L189.115 86.5H182.816L173.448 48.6556H172.918L163.497 86.5H157.569ZM164.185 72.1562V66.4398H182.498V72.1562H164.185ZM197.858 86.5V54.7424H203.68V57.1242H205.268C206.08 56.1009 207.121 55.307 208.391 54.7424C209.661 54.1778 211.055 53.8956 212.573 53.8956C214.796 53.8956 216.719 54.3896 218.342 55.3776C219.965 56.3656 221.235 57.7594 222.153 59.559C223.07 61.3586 223.529 63.4758 223.529 65.9105V86.5H217.707V67.4984C217.707 64.8519 217.107 62.8582 215.907 61.5174C214.743 60.1412 213.014 59.4531 210.72 59.4531C208.426 59.4531 206.68 60.1412 205.48 61.5174C204.28 62.8582 203.68 64.8519 203.68 67.4984V86.5H197.858ZM254.662 66.6515V71.7857L245.134 73.2677C243.652 73.5147 242.541 74.0263 241.8 74.8026C241.094 75.5789 240.741 76.6022 240.741 77.8725C240.741 79.0723 241.182 80.0426 242.065 80.7836C242.982 81.5246 244.146 81.8952 245.558 81.8952C247.11 81.8952 248.522 81.5246 249.792 80.7836C251.098 80.0426 252.139 79.0546 252.915 77.8196C253.691 76.5493 254.08 75.1555 254.08 73.6382V65.8576C254.08 63.811 253.462 62.2055 252.227 61.041C250.992 59.8766 249.298 59.2943 247.146 59.2943C245.628 59.2943 244.27 59.5413 243.07 60.0354C241.87 60.5294 240.882 61.2527 240.106 62.2055C239.365 63.1582 238.854 64.3226 238.571 65.6988H233.014C233.19 63.264 233.878 61.1645 235.078 59.4002C236.313 57.6359 237.971 56.2774 240.053 55.3246C242.135 54.3719 244.552 53.8956 247.305 53.8956C251.257 53.8956 254.309 54.9012 256.461 56.9125C258.649 58.9238 259.743 61.782 259.743 65.4871V86.5H254.08V83.5889H252.492C251.645 84.7886 250.533 85.7061 249.157 86.3412C247.816 86.9764 246.158 87.2939 244.182 87.2939C242.241 87.2939 240.547 86.9234 239.101 86.1824C237.689 85.4061 236.578 84.3299 235.766 82.9537C234.99 81.5776 234.602 79.9721 234.602 78.1372C234.602 75.4907 235.448 73.3206 237.142 71.6269C238.836 69.8978 241.253 68.7863 244.393 68.2923L254.662 66.6515ZM272.88 41.616H288.335V81.0483H297.915V86.5H272.88V81.0483H282.513V47.0677H272.88V41.616ZM306.659 54.7424H312.905L321.056 78.5077H324.761L323.12 83.8535H316.768L306.659 54.7424ZM336.564 54.7424L324.867 91.1048C324.161 93.2573 323.102 94.9334 321.691 96.1331C320.279 97.3329 318.639 97.9327 316.768 97.9327C314.087 97.9327 311.97 97.1917 310.417 95.7097C308.864 94.2277 307.982 92.0752 307.77 89.2523H313.063C313.487 90.4168 313.946 91.2636 314.44 91.7929C314.969 92.3222 315.675 92.5869 316.557 92.5869C317.333 92.5869 317.951 92.3399 318.409 91.8459C318.903 91.3519 319.344 90.5403 319.733 89.4111L330.795 54.7424H336.564ZM357.217 46.4855V54.7424H371.508V60.1941H357.217V76.0729C357.217 77.9431 357.605 79.3898 358.381 80.4131C359.158 81.4011 360.287 81.8952 361.769 81.8952C363.321 81.8952 364.521 81.3659 365.368 80.3073C366.25 79.2134 366.903 77.5726 367.326 75.3848H372.46C372.284 79.2663 371.261 82.2304 369.391 84.277C367.52 86.3236 364.909 87.3469 361.557 87.3469C358.311 87.3469 355.805 86.3765 354.041 84.4358C352.277 82.495 351.395 79.778 351.395 76.2846V60.1941H344.408V54.7424H351.395V46.4855H357.217ZM384.856 54.7424H400.312V81.0483H409.892V86.5H384.856V81.0483H394.489V60.1941H384.856V54.7424ZM396.977 50.0317C395.601 50.0317 394.525 49.6612 393.748 48.9202C392.972 48.1439 392.584 47.0853 392.584 45.7444C392.584 44.4036 392.972 43.3626 393.748 42.6216C394.525 41.8453 395.601 41.4572 396.977 41.4572C398.353 41.4572 399.429 41.8453 400.206 42.6216C400.982 43.3626 401.37 44.4036 401.37 45.7444C401.37 47.0853 400.982 48.1439 400.206 48.9202C399.429 49.6612 398.353 50.0317 396.977 50.0317ZM433.509 87.3469C430.615 87.3469 428.11 86.6764 425.993 85.3356C423.875 83.9947 422.235 82.0892 421.07 79.6192C419.906 77.1139 419.324 74.1675 419.324 70.78C419.324 67.322 419.923 64.3403 421.123 61.8349C422.323 59.2943 424.017 57.336 426.204 55.9598C428.427 54.5836 431.039 53.8956 434.038 53.8956C436.649 53.8956 438.943 54.4425 440.919 55.5364C442.895 56.5949 444.447 58.1123 445.576 60.0883C446.706 62.029 447.323 64.3403 447.429 67.022H442.083C441.624 64.5873 440.672 62.6995 439.225 61.3586C437.813 60.0177 436.014 59.3473 433.826 59.3473C431.039 59.3473 428.886 60.3529 427.369 62.3642C425.851 64.3756 425.093 67.1808 425.093 70.78C425.093 74.2733 425.834 77.008 427.316 78.984C428.798 80.9248 430.862 81.8952 433.509 81.8952C435.485 81.8952 437.143 81.3129 438.484 80.1485C439.86 78.9488 440.813 77.2903 441.342 75.1731H446.688C446.512 77.6432 445.841 79.7956 444.677 81.6305C443.512 83.4301 441.96 84.8415 440.019 85.8648C438.113 86.8529 435.943 87.3469 433.509 87.3469ZM462.471 76.761C462.965 78.4195 463.865 79.6898 465.171 80.5719C466.476 81.4541 468.152 81.8952 470.199 81.8952C472.316 81.8952 473.939 81.5246 475.068 80.7836C476.198 80.0073 476.762 78.9135 476.762 77.502C476.762 76.5493 476.303 75.7554 475.386 75.1202C474.469 74.485 473.11 74.044 471.31 73.797L467.447 73.2147C463.989 72.6855 461.43 71.6622 459.772 70.1448C458.113 68.6275 457.284 66.5104 457.284 63.7933C457.284 60.7234 458.413 58.3063 460.672 56.542C462.965 54.7777 466.106 53.8956 470.093 53.8956C474.151 53.8956 477.362 54.8836 479.726 56.8596C482.09 58.8356 483.343 61.5879 483.484 65.1166H478.191C477.697 63.2464 476.762 61.8173 475.386 60.8293C474.01 59.8413 472.21 59.3473 469.987 59.3473C467.764 59.3473 466.053 59.7354 464.853 60.5117C463.653 61.2527 463.053 62.329 463.053 63.7404C463.053 64.6931 463.512 65.4871 464.43 66.1222C465.347 66.7574 466.706 67.1984 468.505 67.4455L472.369 68.0277C475.862 68.557 478.421 69.5803 480.044 71.0976C481.702 72.6149 482.531 74.7321 482.531 77.4491C482.531 79.4957 482.02 81.26 480.996 82.742C480.008 84.224 478.597 85.3708 476.762 86.1824C474.927 86.9587 472.722 87.3469 470.146 87.3469C466.194 87.3469 463.071 86.4118 460.778 84.5416C458.519 82.6714 457.284 80.0779 457.072 76.761H462.471Z" fill="#000060"/>
</svg>
